# xmcd
#
# Track frame offsets: 
#        150
#        21432
#        42822
#        71861
#        93614
#        115398
#        140299
#        159711
#        183454
#        202882
#        224511
#
# Disc length: 3354 seconds
#
# Revision: 1
# Processed by: cddbd v1.5.2PL0 Copyright (c) Steve Scherf et al.
# Submitted via: ExactAudioCopyFreeDBPlugin 1.0
#
DISCID=a60d180b
DTITLE=Boz Scaggs - 2001 - Dig
DYEAR=2001
DGENRE=R&B
TTITLE0=Payday
TTITLE1=Sarah
TTITLE2=Miss Riddle
TTITLE3=I Just Go
TTITLE4=Get On The Natch
TTITLE5=Desire
TTITLE6=Call That Love
TTITLE7=King Of El Paso
TTITLE8=You're Not
TTITLE9=Vanishing Point
TTITLE10=Thanks To You
EXTD=
EXTT0=
EXTT1=
EXTT2=
EXTT3=
EXTT4=
EXTT5=
EXTT6=
EXTT7=
EXTT8=
EXTT9=
EXTT10=
PLAYORDER=
